<svg width="120" height="120" viewBox="0 0 120 120" fill="none" xmlns="http://www.w3.org/2000/svg">
<g clip-path="url(#clip0_17_2)">
<rect width="120" height="120" fill="white"/>
<mask id="mask0_17_2" style="mask-type:alpha" maskUnits="userSpaceOnUse" x="0" y="16" width="121" height="87">
<path d="M64.741 17.4837V102.161H51.0466V94.2865C48.6881 97.1775 45.759 99.3458 42.2594 100.791C38.8358 102.237 35.0318 102.96 30.8474 102.96C24.9892 102.96 19.7016 101.666 14.9847 99.0795C10.3438 96.4928 6.69192 92.841 4.02912 88.124C1.36631 83.331 0.0349121 77.8532 0.0349121 71.6907C0.0349121 65.5282 1.36631 60.0885 4.02912 55.3715C6.69192 50.6546 10.3438 47.0027 14.9847 44.416C19.7016 41.8293 24.9892 40.5359 30.8474 40.5359C34.8796 40.5359 38.5695 41.2206 41.917 42.5901C45.2645 43.9595 48.1175 46.0137 50.476 48.7526V17.4837H64.741ZM32.5592 90.7488C35.9828 90.7488 39.064 89.988 41.8029 88.4664C44.5418 86.8687 46.71 84.6243 48.3077 81.7333C49.9054 78.8422 50.7043 75.4947 50.7043 71.6907C50.7043 67.8867 49.9054 64.5392 48.3077 61.6481C46.71 58.7571 44.5418 56.5508 41.8029 55.0292C39.064 53.4315 35.9828 52.6327 32.5592 52.6327C29.1355 52.6327 26.0543 53.4315 23.3154 55.0292C20.5765 56.5508 18.4083 58.7571 16.8106 61.6481C15.2129 64.5392 14.414 67.8867 14.414 71.6907C14.414 75.4947 15.2129 78.8422 16.8106 81.7333C18.4083 84.6243 20.5765 86.8687 23.3154 88.4664C26.0543 89.988 29.1355 90.7488 32.5592 90.7488Z" fill="black"/>
<path d="M108.166 28.2109C102.156 28.2109 99.1509 31.4824 99.1509 38.0253V41.6771H115.927V53.0891H99.6074V102.161H85.3424V53.0891H75.2998V41.6771H85.3424V37.797C85.3424 31.2541 87.2444 26.1187 91.0484 22.3908C94.8524 18.5868 100.216 16.6848 107.139 16.6848C112.617 16.6848 116.916 17.788 120.035 19.9943L116.041 30.7216C113.606 29.0478 110.981 28.2109 108.166 28.2109Z" fill="black"/>
</mask>
<g mask="url(#mask0_17_2)">
<rect width="120" height="120" fill="url(#paint0_linear_17_2)"/>
</g>
</g>
<defs>
<linearGradient id="paint0_linear_17_2" x1="120" y1="-3.57628e-06" x2="3.57628e-06" y2="120" gradientUnits="userSpaceOnUse">
<stop stop-color="#61B3C9"/>
<stop offset="1" stop-color="#074D88"/>
</linearGradient>
<clipPath id="clip0_17_2">
<rect width="120" height="120" fill="white"/>
</clipPath>
</defs>
</svg>
